<svg viewBox="0 0 512 512" xmlns="http://www.w3.org/2000/svg" fill-rule="evenodd" clip-rule="evenodd" stroke-linejoin="round" stroke-miterlimit="2"><path d="M451.143 350.263c-52.618 38.832-128.896 59.48-194.587 59.48-92.064 0-174.966-34.034-237.695-90.676-4.925-4.45-.538-10.524 5.387-7.075 67.679 39.383 151.38 63.105 237.832 63.105 58.317 0 122.422-12.099 181.414-37.12 8.887-3.787 16.348 5.849 7.65 12.286m21.884-24.997c6.737 8.624-7.487 44.132-13.836 59.992-1.924 4.8 2.2 6.737 6.55 3.1 28.22-23.61 35.52-73.091 29.746-80.24-5.737-7.087-55.08-13.186-85.202 7.961-4.637 3.25-3.837 7.75 1.3 7.125 16.96-2.025 54.718-6.562 61.442 2.062" fill="#f90"/><g fill="#232f3e"><path d="M396.85 261.686l54.768-139.394c1.15-2.825 1.737-4.812 1.737-5.975 0-1.987-1.162-2.987-3.487-2.987h-13.935c-2.662 0-4.475.425-5.487 1.25-1 .837-1.987 2.662-2.987 5.487l-33.608 96.575-34.846-96.575c-1-2.825-1.987-4.65-2.987-5.487-1-.825-2.825-1.25-5.487-1.25h-14.936c-2.324 0-3.487 1-3.487 2.987 0 1.163.575 3.15 1.738 5.975l48.044 118.485-4.725 12.698c-2.824 7.974-5.974 13.448-9.461 16.435-3.487 2.987-8.387 4.475-14.686 4.475-2.824 0-5.062-.175-6.711-.5-1.663-.325-2.913-.5-3.737-.5-2.488 0-3.737 1.575-3.737 4.724v6.474c0 2.325.412 4.025 1.25 5.1.824 1.075 2.15 1.875 3.986 2.362 4.137 1.15 8.874 1.75 14.186 1.75 9.461 0 17.135-2.487 23.022-7.474 5.912-4.962 11.099-13.186 15.573-24.635M192.401 147.588c-2.412-8.049-5.849-14.898-10.336-20.535-4.474-5.636-9.949-9.96-16.423-12.948-6.462-2.987-13.686-4.474-21.66-4.474-7.461 0-14.773 1.4-21.897 4.224-7.136 2.825-13.86 6.974-20.172 12.449l-1.238-7.974c-.5-3.312-2.412-4.975-5.736-4.975H83.99c-3.312 0-4.974 1.663-4.974 4.975v167.528c0 3.325 1.662 4.975 4.974 4.975h14.686c3.324 0 4.974-1.663 4.974-4.975v-58.242c10.786 9.786 23.647 14.685 38.583 14.685 8.124 0 15.51-1.624 22.147-4.85 6.636-3.236 12.273-7.76 16.923-13.572 4.649-5.8 8.261-12.849 10.823-21.16 2.575-8.3 3.862-17.598 3.862-27.884.025-10.111-1.187-19.198-3.587-27.247zm-55.88 74.79c-11.299 0-22.247-3.974-32.858-11.948v-69.44c10.448-7.637 21.572-11.45 33.358-11.45 22.572 0 33.858 15.524 33.858 46.545-.013 30.87-11.461 46.294-34.358 46.294zM304.65 119.404c-7.475-6.461-19.086-9.698-34.846-9.698-7.8 0-15.598.712-23.397 2.112-7.812 1.412-14.36 3.275-19.673 5.6-1.987.837-3.324 1.699-3.987 2.611-.662.913-1 2.538-1 4.85v6.711c0 2.988 1.075 4.487 3.238 4.487.662 0 1.374-.125 2.124-.375s1.375-.45 1.863-.625c12.785-3.812 24.971-5.724 36.595-5.724 9.949 0 16.923 1.825 20.91 5.487 3.987 3.65 5.974 9.949 5.974 18.91v16.423c-11.611-2.825-22.072-4.224-31.371-4.224-14.598 0-26.21 3.612-34.846 10.823-8.623 7.212-12.948 16.886-12.948 28.996 0 11.299 3.487 20.285 10.461 27.01 6.962 6.724 16.423 10.073 28.372 10.073 7.136 0 14.31-1.412 21.534-4.224 7.224-2.812 13.811-6.812 19.785-11.949l1.25 8.212c.5 3.15 2.325 4.724 5.487 4.724h10.699c3.312 0 4.987-1.662 4.987-4.974v-85.114c-.013-13.611-3.75-23.647-11.212-30.122zm-12.199 92.114c-5.474 4.15-11.199 7.299-17.173 9.461-5.974 2.162-11.698 3.237-17.173 3.237-6.474 0-11.448-1.7-14.935-5.1-3.487-3.399-5.225-8.248-5.225-14.56 0-14.436 9.374-21.66 28.122-21.66 4.312 0 8.749.3 13.31.875 4.563.588 8.925 1.375 13.074 2.362v25.385z"/></g></svg>